<svg width="34" height="34" viewBox="0 0 34 34" fill="none" xmlns="http://www.w3.org/2000/svg">
<path d="M10.5443 7.5791C11.4496 7.5791 12.2868 7.64993 13.0518 7.8596C13.8182 7.99985 14.4458 8.28035 15.0026 8.63027C15.5607 8.98019 15.9787 9.47177 16.2563 10.1022C16.5354 10.7326 16.6757 11.5047 16.6757 12.3448C16.6757 13.3265 16.466 14.1666 15.9787 14.797C15.5607 15.4289 14.8637 15.9884 14.0279 16.4092C15.2122 16.7605 16.1175 17.3909 16.6757 18.231C17.2324 19.0725 17.5809 20.1237 17.5809 21.3151C17.5809 22.2969 17.3712 23.1369 17.0227 23.8382C16.6757 24.5394 16.1175 25.1698 15.4899 25.5906C14.8082 26.0416 14.0546 26.3731 13.2615 26.5709C12.4257 26.782 11.5898 26.9223 10.754 26.9223H1.41675V7.5791H10.5443ZM9.98616 15.4274C10.7526 15.4274 11.3802 15.2178 11.8675 14.8679C12.3548 14.5179 12.5645 13.8861 12.5645 13.1154C12.5645 12.6947 12.4937 12.2739 12.3548 11.9949C12.216 11.7144 12.0063 11.5033 11.7287 11.2936C11.4446 11.1344 11.1393 11.0166 10.822 10.9437C10.4735 10.8729 10.1264 10.8729 9.70708 10.8729H5.66675V15.4289L9.98616 15.4274ZM10.1958 23.6979C10.6137 23.6979 11.0317 23.6271 11.3802 23.5577C11.7287 23.4868 12.0772 23.348 12.3548 23.1369C12.6387 22.9318 12.8762 22.6693 13.0518 22.3663C13.1907 22.0164 13.3309 21.5956 13.3309 21.1054C13.3309 20.1237 13.0518 19.4224 12.4951 18.9323C11.9369 18.5115 11.1705 18.3019 10.2652 18.3019H5.66675V23.6994L10.1958 23.6979ZM23.6428 23.6271C24.1996 24.1881 25.0354 24.4686 26.1503 24.4686C26.9167 24.4686 27.6137 24.2589 28.1705 23.909C28.7287 23.4883 29.0772 23.0675 29.216 22.6468H32.6302C32.072 24.3284 31.2362 25.5198 30.1227 26.2904C29.0063 26.9917 27.6832 27.4124 26.0809 27.4124C25.0558 27.4156 24.0392 27.2253 23.0847 26.8514C22.2257 26.5293 21.4597 25.9998 20.8548 25.3101C20.2078 24.6649 19.7296 23.8704 19.4622 22.9967C19.1137 22.0858 18.9735 21.1054 18.9735 19.9834C18.9735 18.9323 19.1137 17.9519 19.4622 17.0396C19.7977 16.1613 20.294 15.3532 20.9257 14.6568C21.5518 14.0264 22.3182 13.4668 23.1541 13.1154C24.0844 12.7415 25.0783 12.551 26.0809 12.5544C27.2652 12.5544 28.3107 12.7655 29.216 13.2557C30.1227 13.7459 30.8182 14.3069 31.375 15.1484C31.9332 15.919 32.3525 16.8299 32.6302 17.8117C32.769 18.792 32.8384 19.7738 32.769 20.8944H22.6667C22.6667 22.0164 23.0847 23.0675 23.6428 23.6285M28.0317 16.2704C27.5443 15.7802 26.7779 15.4997 25.8712 15.4997C25.3396 15.4917 24.8139 15.6117 24.3384 15.8496C23.9205 16.0607 23.6428 16.3412 23.3637 16.6217C23.1073 16.8926 22.9376 17.234 22.8764 17.602C22.8056 17.9534 22.7362 18.2324 22.7362 18.5129H29.0063C28.8675 17.4618 28.519 16.7619 28.0317 16.2704ZM21.9003 8.91077H29.7033V10.8034H21.9017L21.9003 8.91077Z" fill="black"/>
</svg>
