<svg width="96" height="104" viewBox="0 0 96 104" fill="none" xmlns="http://www.w3.org/2000/svg">
<path d="M18.6103 33.8711C18.6734 33.9346 18.6734 33.9981 18.7366 34.0616C19.1787 33.9981 19.5577 33.9981 19.9366 33.8076C21.9578 32.9186 23.9789 32.1565 25.8737 31.1405C28.2107 29.8704 30.4213 28.4098 32.5687 27.0127C33.8319 26.1872 34.8425 25.0441 35.6636 23.7741C35.7899 23.5201 35.9794 23.266 36.1057 22.9485C37.3689 20.2814 35.9162 17.7413 32.9477 17.5507C31.9371 17.4872 30.9265 17.6777 29.8528 17.7413C29.4739 17.8048 29.0317 17.8683 28.6528 17.8683C28.0843 17.8683 27.5791 17.5507 27.3896 16.9792C27.1369 16.4712 27.3264 15.9632 27.7054 15.5186C27.8949 15.3281 28.0843 15.1376 28.337 15.0106C29.7265 14.0581 31.116 13.169 32.5687 12.28C34.8425 10.8829 37.0531 9.42231 39.0742 7.64422C39.5795 7.19969 40.148 6.75517 40.3374 6.12014C40.0848 5.61211 39.7058 5.67561 39.3269 5.73912C38.5058 5.86612 37.6215 5.99313 36.8005 6.24714C33.2003 7.2632 29.8528 8.91429 26.8211 11.1369C25.179 12.28 23.6631 13.4865 22.0841 14.6931C21.0735 15.5186 19.9998 16.4077 18.9261 17.1697C17.2839 18.2493 15.4523 18.6303 13.5575 17.9953C11.2205 17.1697 10.3363 14.8836 11.5363 12.661C12.0416 11.7084 12.7995 10.9464 13.7469 10.4384C14.8838 9.86684 16.0207 9.35881 17.1576 8.97779C23.4105 6.75517 29.7897 5.10408 36.1689 3.38949C37.3057 3.07197 38.5689 2.94497 39.8322 2.88147C40.6532 2.88147 41.5375 3.13548 42.2954 3.45299C43.5586 4.02453 44.0639 5.3581 43.4323 6.62816C43.0533 7.45371 42.4217 8.27925 41.7901 8.97779C39.8322 10.9464 37.5584 12.534 35.2215 13.9946C34.8425 14.1851 34.4635 14.4391 33.9582 14.8201C34.4004 15.0106 34.653 15.1376 34.9056 15.2646C38.5689 16.6617 40.148 20.0909 38.8847 23.7741C38.1268 25.8697 36.9268 27.5843 35.4741 29.1719C34.7793 29.8704 34.0846 30.5689 33.3898 31.204C28.9054 34.8872 24.1684 38.1893 18.6734 40.2214C15.5786 41.3645 12.4206 42.3171 9.26255 43.3331C7.68354 43.8411 6.10454 44.0317 4.46237 43.8411C2.88336 43.7141 1.55699 43.0791 0.672746 41.7455C-0.59046 39.7769 -0.0220166 37.1733 1.93595 35.7762C2.8202 35.1412 3.83076 34.8237 4.90449 34.6967C5.78873 34.5696 6.67298 34.5061 7.49406 34.5061C8.63095 34.4426 9.70467 34.3156 10.7152 33.8711C15.7681 31.6485 20.5051 29.0449 24.6105 25.2347C25.4316 24.4726 26.1895 23.5836 27.0738 22.758C27.5791 22.25 28.0843 21.742 28.7159 21.2974C29.2844 20.9164 29.9791 21.0434 30.4213 21.488C30.8634 21.996 30.8634 22.5675 30.6107 23.139C30.2949 23.6471 29.916 24.1551 29.4739 24.5996C26.8843 27.1398 24.1684 29.4894 21.3262 31.6485C20.6314 32.1565 19.9998 32.6645 19.3682 33.1726C19.1156 33.3631 18.8629 33.6171 18.6103 33.8711Z" fill="black"/>
<path d="M40.7766 24.2186C41.1556 23.7106 41.5345 23.3295 41.8503 22.885C41.6608 22.4405 41.5345 22.1865 41.4082 21.869C41.2187 21.488 41.0292 21.1069 40.9661 20.7259C40.2082 17.8683 42.6714 15.6456 45.7663 16.4712C46.7137 16.7252 47.5348 17.1697 48.2927 17.7413C49.8085 19.0113 51.1981 20.3449 52.2086 21.996C53.9139 24.7266 54.4192 27.7113 53.5981 30.8229C53.0929 32.5375 52.2086 34.0616 50.6928 35.2047C48.9874 36.5382 47.0295 37.1098 44.882 36.6018C41.5345 35.7762 39.3239 33.8711 38.5028 30.6959C38.187 29.3624 38.3133 28.0288 39.0081 26.7587C39.5134 25.8697 40.2082 25.0441 40.7766 24.2186ZM46.5873 30.95C46.7137 30.5689 46.7137 30.1879 46.7768 29.8704C46.6505 27.9018 45.6399 26.3777 44.2504 25.0441C43.6188 24.4091 43.1135 24.4091 42.4188 25.0441C41.5345 25.8697 41.0924 26.8222 40.8398 27.9018C40.2713 30.1879 42.0398 32.22 44.5662 32.22C45.5136 32.22 46.2715 31.7755 46.5873 30.95Z" fill="black"/>
<path d="M59.0768 8.91429C58.6347 8.91429 58.1926 8.97779 57.561 9.04129C57.8768 9.48582 58.0662 9.80333 58.2557 10.1208C59.0136 11.1369 59.4558 12.3435 59.2663 13.6135C59.14 14.8201 58.6347 15.8362 57.4346 16.2807C56.2346 16.7887 55.1609 16.4712 54.2135 15.5821C53.7713 15.1376 53.3924 14.6296 53.0134 14.1216C51.0554 11.8989 49.1606 9.61282 47.2027 7.3902C46.8237 6.94568 46.4447 6.43765 46.1921 5.92963C45.6237 4.40555 46.6974 3.00847 48.3396 3.19898C48.7817 3.19898 49.287 3.38949 49.7291 3.5165C54.2135 4.72306 58.6978 5.67561 63.3717 5.80262C67.7929 5.92963 72.151 5.54861 76.3827 4.53255C78.3407 4.08803 80.2355 3.64351 82.1303 3.07197C83.3304 2.69095 84.4673 2.11942 85.6673 1.6749C87.0568 1.16687 88.4464 0.658846 89.899 0.214325C90.657 0.0238134 91.5412 -0.0396892 92.3623 0.0238134C94.0676 0.150818 95.4572 1.35739 95.8361 2.94497C96.2782 4.72306 95.8361 6.18364 94.3834 7.3267C93.6887 7.96173 92.8044 8.34276 91.857 8.46976C90.5938 8.66027 89.2674 8.91429 88.0042 8.91429C82.3198 9.1683 76.6985 9.29531 71.0141 9.42231C69.5614 9.48582 69.4983 9.54932 69.8772 10.9464C70.6983 13.677 71.0141 16.4712 70.951 19.2653C70.8878 22.758 69.8772 25.9332 67.2877 28.4098C66.0244 29.5529 64.6981 30.5054 63.1191 31.204C62.9928 31.2675 62.8664 31.331 62.7401 31.3945C61.7927 31.839 61.7295 32.1565 62.3611 32.9821C64.0665 35.2047 65.7718 37.4908 67.4771 39.7134C67.6666 39.9674 67.8561 40.1579 67.9824 40.3485C70.1299 43.3966 72.4036 38.8879 75.309 39.3959C78.1512 39.9039 80.2355 42.5711 78.0249 45.5557C77.267 46.4448 73.2247 51.6521 68.9298 50.3185C65.3928 49.2389 61.5401 41.809 60.6558 40.285C59.3926 38.2528 58.1926 36.1572 56.9925 34.1251C56.6136 33.4266 56.2346 32.7281 55.982 31.966C55.4135 30.1244 56.1714 28.5368 58.0031 27.9018C58.4452 27.7113 58.8873 27.5843 59.3926 27.4573C63.2454 26.2507 65.835 23.7741 66.9087 19.7734C67.6666 16.7252 67.3508 13.804 66.4034 10.8829C66.0245 9.80333 65.3297 9.29531 64.256 9.29531C62.4875 9.2318 60.7821 9.04129 59.0768 8.91429Z" fill="black"/>
<path d="M32.1266 66.5965C32.3792 66.0885 32.695 65.644 32.6319 64.8184C32.1266 64.9454 31.6845 65.0089 31.3055 65.1359C29.6633 65.5805 28.0212 65.9615 26.3158 65.8345C25.1158 65.771 23.9789 65.39 23.0315 64.4374C21.7051 62.9133 21.642 60.6907 22.9683 59.1666C23.7894 58.1506 24.8632 57.579 26.0632 57.3885C26.6948 57.325 28.7791 56.944 30.7371 57.071C33.5161 57.198 36.4847 57.706 38.19 57.5155C41.2217 57.071 42.4217 58.1506 42.548 59.0396C42.8007 60.4367 41.6006 61.0717 41.1585 61.3257C39.4532 62.4688 38.2531 64.0564 37.4321 66.025C35.9162 69.5812 34.3372 73.0104 32.7582 76.503C31.874 78.4081 30.8002 80.2497 29.537 81.9008C28.0843 83.7424 26.2527 85.0125 24.2316 86.092C23.5368 86.4731 22.842 86.7271 22.2736 87.2351C22.4631 87.5526 26.1895 89.8387 30.6107 91.7438C36.0425 93.9665 42.4849 95.9351 43.7481 97.3957C46.0219 100.126 43.4955 103.809 41.0954 104C39.3269 104 37.9373 103.111 36.611 102.031C36.2952 101.777 35.9794 101.523 35.7267 101.269C33.8319 99.0467 31.3687 97.5227 28.8423 96.1891C25.3684 94.3475 21.8946 92.4424 18.3576 90.6008C17.0944 89.9023 15.7681 89.4577 14.3785 89.0767C13.5575 88.8862 12.7364 88.5052 12.0416 87.9971C10.3363 86.7271 10.1468 84.441 11.5995 82.8534C12.3574 81.9643 13.368 81.4563 14.4417 81.1388C15.6417 80.7578 16.905 80.6308 18.2313 80.8213C18.8629 80.8848 19.4945 80.9483 20.1893 80.9483C23.1578 81.0118 25.4948 79.7417 27.0106 77.0746C28.2738 74.852 29.3475 72.5023 30.4844 70.2162C31.0529 69.0096 31.6213 67.8031 32.1266 66.5965Z" fill="black"/>
<path d="M39.1152 71.4863C41.5784 72.2483 41.7679 74.7249 39.3047 76.8841C39.052 77.0746 38.8625 77.2651 38.6731 77.4556C35.0098 81.0753 37.6625 84.1869 37.0941 88.1877C36.9677 89.1402 36.3993 89.9658 35.3887 90.4738C34.8203 90.7278 34.1887 90.8548 33.4939 90.7278C32.1044 90.6008 31.0938 89.7117 30.8412 88.3782C30.778 88.1877 30.778 88.0607 30.778 88.0607C30.6517 87.1081 30.8412 86.3461 31.2201 85.584C31.6623 84.3775 32.357 83.6789 33.3044 82.2818C35.3256 79.3607 35.0098 75.0425 35.1992 74.0899C35.3256 73.3279 35.5782 72.6928 36.2098 72.1848C37.0309 71.4228 38.0415 71.1688 39.1152 71.4863Z" fill="black"/>
<path d="M46.4433 74.979C46.0643 74.852 45.6222 74.5979 45.3695 75.0425C45.0537 75.5505 45.4327 75.995 45.7485 76.376C46.1906 76.9476 46.6327 77.4556 47.0749 77.9636C48.6539 79.7417 50.2329 81.5198 51.8119 83.2979C52.0645 83.5519 52.3172 83.8694 52.5067 84.2505C53.0119 85.1395 52.6961 86.1556 51.8119 86.4096C51.4961 86.4731 51.1171 86.4731 50.8013 86.4731C48.4012 86.4096 46.0643 86.8541 43.98 88.0607C43.6011 88.2512 43.2852 88.5052 42.9063 88.5687C42.3378 88.6957 41.7694 88.8862 41.2641 88.8227C40.1904 88.7592 39.3061 88.1877 38.864 87.0446C38.3587 85.838 38.5482 84.695 39.243 83.7424C39.6851 83.1074 40.2536 82.7264 40.8852 82.4724C41.8957 82.1548 42.9694 82.0278 44.0432 82.1548C44.8011 82.2818 45.4959 82.4089 46.2538 82.5359C46.6959 82.5994 47.138 82.6629 47.896 82.7899C47.5801 82.2183 46.0011 80.5673 45.3064 79.9957C44.7379 79.4242 44.1063 78.8527 43.5379 78.2811C42.8431 77.4556 42.2747 76.4395 41.9589 75.2965C41.5799 73.8359 41.8326 72.5658 42.7168 71.5498C43.0958 71.1053 43.5379 70.7877 44.0432 70.4702C46.4433 69.2637 48.9697 68.9461 51.6224 69.9622C52.254 70.2162 52.8856 70.5972 53.4541 70.9782C53.9593 71.3593 54.3383 71.8673 54.6541 72.5023C55.2225 73.7724 55.0331 75.233 54.1488 76.0585C53.5172 76.6936 52.8225 76.9476 51.9382 76.8841C51.054 76.8841 50.1066 76.63 49.2223 76.249C48.2749 75.8045 47.3907 75.36 46.4433 74.979Z" fill="black"/>
<path d="M58.9535 61.8338C58.5113 61.8338 58.0692 61.8973 57.4376 61.9608C57.7534 62.4053 57.9429 62.7228 58.1324 63.0403C58.8903 64.0564 59.3324 65.2629 59.1429 66.533C59.0166 67.7396 58.5113 68.7556 57.3113 69.2001C56.1112 69.7082 55.0375 69.3907 54.0901 68.5016C53.648 68.0571 53.269 67.5491 52.8901 67.041C50.9321 64.8184 49.0373 62.5323 47.0793 60.3097C46.7003 59.8652 46.3214 59.3571 46.0687 58.8491C45.5003 57.325 46.574 55.9279 48.2162 56.1185C48.6583 56.1185 49.1636 56.309 49.6057 56.436C54.0901 57.6425 58.5745 58.5951 63.2484 58.7221C67.6696 58.8491 72.0276 58.4681 76.2594 57.452C78.2174 57.0075 80.1122 56.563 82.007 55.9914C83.207 55.6104 84.3439 55.0389 85.544 54.5944C86.9335 54.0863 88.323 53.5783 89.7757 53.1338C90.5336 52.9433 91.4179 52.8798 92.2389 52.9433C93.9443 53.0703 95.3338 54.2769 95.7128 55.8644C96.1549 57.6425 95.7128 59.1031 94.2601 60.2462C93.5653 60.8812 92.6811 61.2622 91.7337 61.3892C90.4705 61.5797 89.1441 61.8338 87.8809 61.8338C82.1965 62.0878 76.5752 62.2148 70.8908 62.3418C69.4381 62.4053 69.3749 62.4688 69.7539 63.8659C70.575 66.5965 70.8908 69.3907 70.8276 72.1848C70.7644 75.6775 69.7539 78.8527 67.1643 81.3293C65.9011 82.4724 64.5747 83.4249 62.9957 84.1234C62.8694 84.187 62.7431 84.2505 62.6168 84.3139C61.6693 84.7585 61.6062 85.076 62.2378 85.9015C63.9431 88.1242 65.6484 90.4103 67.3538 92.6329C67.5433 92.8869 67.7327 93.0774 67.8591 93.2679C70.0065 96.3161 72.2803 91.8074 75.1857 92.3154C78.0279 92.8234 80.1122 95.4905 77.9016 98.4752C77.1436 99.3643 73.1014 104.572 68.8065 103.238C65.2695 102.158 61.4167 94.7285 60.5325 93.2044C59.2692 91.1723 58.0692 89.0767 56.8692 87.0446C56.4902 86.3461 56.1112 85.6475 55.8586 84.8855C55.2901 83.0439 56.0481 81.4563 57.8797 80.8213C58.3218 80.6308 58.764 80.5038 59.2692 80.3767C63.122 79.1702 65.7116 76.6935 66.7853 72.6928C67.5433 69.6447 67.2275 66.7235 66.2801 63.8024C65.9011 62.7228 65.2063 62.2148 64.1326 62.2148C62.3641 62.1513 60.6588 61.9608 58.9535 61.8338Z" fill="black"/>
</svg>
