<svg width="102" height="24" viewBox="0 0 102 24" fill="none" xmlns="http://www.w3.org/2000/svg">
<path d="M1.68 21V3.72H3.3L10.092 18.252L16.848 3.72H18.492V20.988H16.812V7.656L10.656 21H9.516L3.372 7.656V21H1.68ZM27.3437 21.36C26.0797 21.36 24.9837 21.08 24.0557 20.52C23.1357 19.96 22.4197 19.172 21.9077 18.156C21.3957 17.14 21.1397 15.948 21.1397 14.58C21.1397 13.164 21.3917 11.94 21.8957 10.908C22.3997 9.876 23.1077 9.08 24.0197 8.52C24.9397 7.96 26.0237 7.68 27.2717 7.68C28.5517 7.68 29.6437 7.976 30.5477 8.568C31.4517 9.152 32.1357 9.992 32.5997 11.088C33.0637 12.184 33.2757 13.492 33.2357 15.012H31.4357V14.388C31.4037 12.708 31.0397 11.44 30.3437 10.584C29.6557 9.728 28.6477 9.3 27.3197 9.3C25.9277 9.3 24.8597 9.752 24.1157 10.656C23.3797 11.56 23.0117 12.848 23.0117 14.52C23.0117 16.152 23.3797 17.42 24.1157 18.324C24.8597 19.22 25.9117 19.668 27.2717 19.668C28.1997 19.668 29.0077 19.456 29.6957 19.032C30.3917 18.6 30.9397 17.98 31.3397 17.172L32.9837 17.808C32.4717 18.936 31.7157 19.812 30.7157 20.436C29.7237 21.052 28.5997 21.36 27.3437 21.36ZM22.3877 15.012V13.536H32.2877V15.012H22.3877ZM44.9072 21V14.388C44.9072 13.668 44.8392 13.008 44.7032 12.408C44.5672 11.8 44.3472 11.272 44.0432 10.824C43.7472 10.368 43.3592 10.016 42.8792 9.768C42.4072 9.52 41.8312 9.396 41.1512 9.396C40.5272 9.396 39.9752 9.504 39.4952 9.72C39.0232 9.936 38.6232 10.248 38.2952 10.656C37.9752 11.056 37.7312 11.544 37.5632 12.12C37.3952 12.696 37.3112 13.352 37.3112 14.088L36.0632 13.812C36.0632 12.484 36.2952 11.368 36.7592 10.464C37.2232 9.56 37.8632 8.876 38.6792 8.412C39.4952 7.948 40.4312 7.716 41.4872 7.716C42.2632 7.716 42.9392 7.836 43.5152 8.076C44.0992 8.316 44.5912 8.64 44.9912 9.048C45.3992 9.456 45.7272 9.924 45.9752 10.452C46.2232 10.972 46.4032 11.528 46.5152 12.12C46.6272 12.704 46.6832 13.288 46.6832 13.872V21H44.9072ZM35.5352 21V8.04H37.1312V11.232H37.3112V21H35.5352ZM54.7532 21.324C53.9772 21.324 53.2972 21.204 52.7132 20.964C52.1372 20.724 51.6452 20.4 51.2372 19.992C50.8372 19.584 50.5132 19.12 50.2652 18.6C50.0172 18.072 49.8372 17.516 49.7252 16.932C49.6132 16.34 49.5572 15.752 49.5572 15.168V8.04H51.3332V14.652C51.3332 15.364 51.4012 16.024 51.5372 16.632C51.6732 17.24 51.8892 17.772 52.1852 18.228C52.4892 18.676 52.8772 19.024 53.3492 19.272C53.8292 19.52 54.4092 19.644 55.0892 19.644C55.7132 19.644 56.2612 19.536 56.7332 19.32C57.2132 19.104 57.6132 18.796 57.9332 18.396C58.2612 17.988 58.5092 17.496 58.6772 16.92C58.8452 16.336 58.9292 15.68 58.9292 14.952L60.1772 15.228C60.1772 16.556 59.9452 17.672 59.4812 18.576C59.0172 19.48 58.3772 20.164 57.5612 20.628C56.7452 21.092 55.8092 21.324 54.7532 21.324ZM59.1092 21V17.808H58.9292V8.04H60.6932V21H59.1092Z" fill="black"/>
<path d="M82 6H98M82 12H90M82 18H98" stroke="black" stroke-width="2" stroke-linecap="round" stroke-linejoin="round"/>
</svg>
