<svg width="34" height="34" viewBox="0 0 34 34" fill="none" xmlns="http://www.w3.org/2000/svg">
<path d="M5.66671 28.3333C4.88754 28.3333 4.22076 28.0561 3.66637 27.5017C3.11199 26.9474 2.83432 26.2801 2.83337 25.5V8.49999C2.83337 7.72082 3.11104 7.05405 3.66637 6.49966C4.22171 5.94527 4.88849 5.6676 5.66671 5.66666H28.3334C29.1125 5.66666 29.7798 5.94432 30.3351 6.49966C30.8905 7.05499 31.1677 7.72177 31.1667 8.49999V25.5C31.1667 26.2792 30.8895 26.9464 30.3351 27.5017C29.7807 28.0571 29.1135 28.3343 28.3334 28.3333H5.66671ZM17 18.4167L5.66671 11.3333V25.5H28.3334V11.3333L17 18.4167ZM17 15.5833L28.3334 8.49999H5.66671L17 15.5833ZM5.66671 11.3333V8.49999V25.5V11.3333Z" fill="black"/>
</svg>
