<svg width="51" height="70" viewBox="0 0 51 70" fill="none" xmlns="http://www.w3.org/2000/svg">
<g clip-path="url(#clip0_5_4161)">
<path d="M4.84213 34.7845C5.96582 33.2431 12.3097 23.3386 22.4839 17.9257C22.872 17.719 23.2017 17.4229 23.4604 17.0682L32.3029 4.85923C32.3029 4.85923 34.1165 3.21827 33.0283 13.2503L43.5525 10.1266C43.9533 10.0067 44.3896 10.0628 44.7422 10.2925C45.6173 10.8693 46.8018 12.2831 44.3591 15.1287C44.0928 15.4375 43.7098 15.6238 43.3014 15.6391C40.4046 15.7437 28.3154 16.7186 25.6038 21.5547C25.4415 21.8431 25.2639 22.2055 25.0686 22.5679C23.5873 25.3215 16.8882 36.2596 16.9111 42.0119C16.9161 43.219 17.5909 44.3317 18.6486 44.9008C20.688 45.9931 24.7921 46.8863 29.7714 41.0115C29.9211 40.8328 30.1392 40.7129 30.37 40.7129C30.6719 40.7129 31.0042 40.8762 30.8976 41.6469C30.8748 41.8052 30.8038 41.9532 30.6947 42.0731C29.3884 43.5227 20.272 53.1975 15.6758 46.1947C15.5083 45.942 15.3409 45.6868 15.1684 45.4367C14.3086 44.1862 11.4017 38.2221 19.9701 22.7363C19.9701 22.7363 9.2253 29.7493 6.13831 35.642C6.00641 35.8921 5.76036 36.0733 5.4788 36.0962C5.17442 36.1218 4.98671 35.9737 4.7711 35.6369C4.58847 35.3459 4.65442 35.0397 4.84213 34.7845Z" fill="black"/>
<path d="M22.1033 33.197C23.3183 31.6684 33.249 19.735 39.7451 29.0219C40.1256 29.5655 40.3437 30.206 40.3843 30.8696C40.5745 33.7993 40.402 42.6192 32.8456 51.5641C32.8456 51.5641 23.78 61.5987 19.2446 63.7884C19.2446 63.7884 18.1564 63.2933 19.2446 62.0811C19.2446 62.0811 34.9662 48.9329 35.6333 33.6258C35.679 32.5667 35.2833 31.5229 34.5071 30.8083C32.9623 29.3868 29.6039 28.4017 22.9556 34.1821C22.7299 34.3786 22.4026 34.445 22.1363 34.3097C21.9384 34.2102 21.7837 34.0162 21.875 33.6436C21.9156 33.4803 21.9993 33.3297 22.1033 33.1996V33.197Z" fill="black"/>
<path d="M17.3654 70.0002C16.5892 70.0002 15.8942 69.9134 15.2905 69.745C13.9334 69.3596 12.9467 68.1883 12.8351 66.7259C12.7666 65.82 13.0989 64.9268 13.6899 64.2402C17.4009 59.9171 19.2069 56.8955 20.0034 55.3464C16.5435 55.9231 13.832 55.2698 11.9346 53.3992C7.95222 49.4792 8.71065 41.3127 9.43864 37.0891C6.60784 39.6386 2.80047 41.9277 1.56263 42.6474C1.2481 42.8312 0.867616 42.8363 0.54801 42.6576C0.233477 42.4841 0.0381623 42.1651 0.0229429 41.8078C-0.390516 31.3648 6.28824 25.0562 11.166 20.4497C12.8224 18.8853 14.253 17.5353 15.0241 16.3537C15.567 15.5218 15.7242 14.8327 15.5035 14.2432C14.981 12.8523 12.4064 12.1275 11.3715 11.8443C10.9885 11.7396 10.6689 11.4538 10.5674 11.0684C10.4482 10.6142 10.6283 10.1727 11.0113 9.94554C13.5428 8.44238 14.5092 3.65475 14.7451 1.77134C14.7958 1.37578 15.1028 1.06443 15.4959 1.01594H15.4985C15.8916 0.964898 16.2594 1.19458 16.4066 1.56463C17.6089 4.55052 20.9267 4.57093 22.5729 4.58369C22.7099 4.58369 22.8317 4.58369 22.9357 4.5888C23.2882 4.59646 23.6078 4.81338 23.7448 5.13749C23.8818 5.4616 23.8158 5.83675 23.5799 6.0945C22.441 7.3399 21.5431 8.65931 20.9089 10.0144C20.6477 10.5708 20.3991 11.1935 20.1454 11.9183C19.9273 12.5435 19.9045 12.9238 20.077 13.1535C20.1378 13.2351 20.1987 13.2964 20.2469 13.3372C22.8418 10.4049 25.5737 7.50578 28.2142 4.70109C29.4318 3.4072 30.6519 2.11332 31.8593 0.814328C32.6431 -0.0278464 33.8834 -0.239666 34.8778 0.298815C37.3864 1.6565 37.0237 5.38504 36.6787 7.18678L48.2353 6.0256C49.0597 5.93883 49.8358 6.45434 50.0641 7.25313L50.8505 9.99913C51.1346 10.9919 51.0128 12.0357 50.503 12.9365L45.9803 19.873L45.577 19.85C40.0853 19.5336 37.2647 20.5289 35.8822 21.3787C38.434 21.5063 40.202 22.8946 41.1101 23.821C41.5819 24.3033 41.9573 24.875 42.2262 25.5207C47.7863 38.9087 39.5044 51.1406 38.2514 52.8709C38.2894 53.7794 38.571 54.4455 39.1037 54.9023C39.7048 55.4178 40.9782 55.9436 43.6314 55.5148C43.9713 55.4612 44.3163 55.6118 44.4989 55.9053C44.6866 56.2039 44.6739 56.5892 44.4685 56.8827C42.9795 59.0188 41.97 61.9179 42.9998 63.1378C43.2738 63.4619 43.2966 63.9799 42.9947 64.276C42.6701 64.595 42.1425 64.6154 41.8076 64.3219C40.3542 63.0433 37.1201 62.6018 35.7656 62.5865C35.5068 62.584 35.2506 62.4768 35.0858 62.2752C34.8118 61.9409 34.8118 61.4891 35.0629 61.165C36.2551 59.6236 36.2374 58.8861 36.1232 58.5824C35.9406 58.1051 35.2227 57.9112 34.8093 57.8397C34.6698 57.8142 34.5252 57.878 34.444 57.9929C30.6924 63.5589 22.4436 68.1347 20.0034 69.4056C19.3261 69.7578 18.5728 69.9619 17.827 69.9926C17.6698 70.0002 17.5176 70.0028 17.3679 70.0028L17.3654 70.0002ZM22.2888 53.389L21.8754 54.6037C21.8221 54.7569 20.531 58.4318 14.7071 65.2075C14.2657 65.7204 14.1186 66.412 14.3114 67.0577C14.5092 67.7161 15.0038 68.201 15.671 68.3899C16.2468 68.5532 16.9545 68.6221 17.7687 68.5864C18.3141 68.5634 18.8645 68.4154 19.3617 68.1576C21.7283 66.925 29.7235 62.4972 33.2899 57.2043C33.678 56.6275 34.3705 56.334 35.0528 56.454C36.283 56.6709 37.1074 57.2323 37.4295 58.0771C37.7618 58.9473 37.5335 59.986 36.7269 61.2416C37.8252 61.3437 39.6719 61.6142 41.2192 62.3186C41.0264 60.7414 41.6808 58.7891 42.703 57.046C40.722 57.2043 39.2102 56.8444 38.1981 55.9767C37.3052 55.2111 36.8512 54.0908 36.8512 52.6489V52.4064L37.0009 52.215C37.0973 52.0925 46.589 39.6768 40.9376 26.0693C40.7372 25.5896 40.4633 25.1685 40.1158 24.8137C39.2102 23.8873 37.2621 22.4021 34.4161 22.8742C34.0204 22.9405 33.6247 22.7134 33.4852 22.3102C33.3939 22.0422 33.4624 21.7487 33.6272 21.5216C34.4339 20.4217 37.1328 18.0457 45.2548 18.4311L49.3133 12.2092C49.6101 11.6784 49.6887 11.0174 49.5086 10.3921L48.7223 7.64615C48.6817 7.50578 48.5295 7.41391 48.3773 7.42922L34.8194 8.78946L35.1061 7.79161C35.5043 6.4033 36.1232 2.57524 34.2157 1.54166C33.7896 1.30942 33.2265 1.40895 32.8815 1.78155C31.6716 3.08309 30.4489 4.37953 29.2289 5.67597C26.5604 8.50874 23.8006 11.441 21.1905 14.3937C20.9394 14.6796 20.602 14.825 20.252 14.8123C19.6381 14.7868 19.1816 14.2993 18.9634 14.0084C18.2608 13.0718 18.6717 11.8978 18.829 11.4563C19.0978 10.6856 19.3667 10.0221 19.6457 9.42237C20.1987 8.24077 20.9318 7.08725 21.8323 5.98477C20.1835 5.93117 17.477 5.60706 15.8688 3.46845C15.43 5.69383 14.461 8.97066 12.3988 10.6856C13.8725 11.1271 16.1453 11.9923 16.8073 13.7557C17.1929 14.7817 16.9849 15.9199 16.1884 17.1372C15.326 18.4566 13.8396 19.8602 12.1172 21.4859C7.53876 25.7963 1.30644 31.6838 1.40029 41.1085C3.23169 40.0163 7.31554 37.4361 9.71259 34.8535C10.0956 34.44 10.8236 34.486 11.1204 35.1189C11.1838 35.2541 11.1889 35.4073 11.1584 35.5527C10.7297 37.4872 8.61426 48.1624 12.9086 52.3911C14.6842 54.1393 17.4212 54.5782 21.0459 53.6927L22.2863 53.389H22.2888ZM35.763 61.1752C35.763 61.1752 35.7681 61.1752 35.7732 61.1752C35.7706 61.1752 35.7656 61.1752 35.763 61.1752Z" fill="black"/>
</g>
<defs>
<clipPath id="clip0_5_4161">
<rect width="51" height="70" fill="white"/>
</clipPath>
</defs>
</svg>
