<svg width="34" height="34" viewBox="0 0 34 34" fill="none" xmlns="http://www.w3.org/2000/svg">
<g clip-path="url(#clip0_5_4181)">
<path d="M16.9999 5.66675C18.2112 5.66675 19.4536 5.69791 20.6578 5.74891L22.0801 5.81691L23.4415 5.89766L24.7165 5.98408L25.881 6.07475C27.1447 6.17147 28.3339 6.71076 29.2392 7.59772C30.1446 8.48469 30.7082 9.66251 30.8308 10.924L30.8875 11.5261L30.9938 12.8152C31.0929 14.1512 31.1666 15.6075 31.1666 17.0001C31.1666 18.3927 31.0929 19.849 30.9938 21.1849L30.8875 22.4741C30.8691 22.6809 30.8507 22.8807 30.8308 23.0762C30.7081 24.3379 30.1444 25.5159 29.2387 26.4029C28.3331 27.2899 27.1436 27.829 25.8796 27.9254L24.7179 28.0147L23.4429 28.1025L22.0801 28.1832L20.6578 28.2512C19.4392 28.3042 18.2196 28.3316 16.9999 28.3334C15.7802 28.3316 14.5607 28.3042 13.3421 28.2512L11.9198 28.1832L10.5583 28.1025L9.28334 28.0147L8.11884 27.9254C6.8551 27.8287 5.66595 27.2894 4.76059 26.4024C3.85523 25.5155 3.29165 24.3376 3.169 23.0762L3.11234 22.4741L3.00609 21.1849C2.89776 19.7925 2.84011 18.3967 2.83325 17.0001C2.83325 15.6075 2.90692 14.1512 3.00609 12.8152L3.11234 11.5261C3.13075 11.3192 3.14917 11.1195 3.169 10.924C3.2916 9.66274 3.85498 8.48509 4.76005 7.59815C5.66512 6.71122 6.85393 6.17179 8.11742 6.07475L9.2805 5.98408L10.5555 5.89766L11.9183 5.81691L13.3407 5.74891C14.5597 5.69598 15.7797 5.66858 16.9999 5.66675ZM16.9999 8.50008C15.8312 8.50008 14.6284 8.53125 13.4583 8.57941L12.0728 8.646L10.7425 8.72391L9.493 8.80891L8.34834 8.89816C7.74672 8.94085 7.17965 9.19516 6.74763 9.61603C6.31562 10.0369 6.04657 10.5971 5.98817 11.1974C5.82242 12.9102 5.66659 15.0422 5.66659 17.0001C5.66659 18.9579 5.82242 21.09 5.98817 22.8027C6.10859 24.0381 7.08892 24.9986 8.34834 25.102L9.493 25.1898L10.7425 25.2748L12.0728 25.3542L13.4583 25.4207C14.6284 25.4689 15.8312 25.5001 16.9999 25.5001C18.1687 25.5001 19.3714 25.4689 20.5416 25.4207L21.9271 25.3542L23.2573 25.2762L24.5068 25.1912L25.6515 25.102C26.2531 25.0593 26.8202 24.805 27.2522 24.3841C27.6842 23.9633 27.9533 23.403 28.0117 22.8027C28.1774 21.09 28.3333 18.9579 28.3333 17.0001C28.3333 15.0422 28.1774 12.9102 28.0117 11.1974C27.9533 10.5971 27.6842 10.0369 27.2522 9.61603C26.8202 9.19516 26.2531 8.94085 25.6515 8.89816L24.5068 8.81033L23.2573 8.72533L21.9271 8.646L20.5416 8.57941C19.3617 8.52865 18.1809 8.5022 16.9999 8.50008ZM14.1666 13.5647C14.1665 13.4262 14.2002 13.2898 14.2649 13.1674C14.3295 13.0449 14.423 12.9401 14.5374 12.862C14.6518 12.784 14.7835 12.7351 14.921 12.7195C15.0586 12.7039 15.1979 12.7222 15.3268 12.7727L15.4416 12.8294L21.3916 16.2634C21.5101 16.3318 21.6103 16.4277 21.6838 16.5431C21.7572 16.6585 21.8018 16.7899 21.8136 16.9262C21.8254 17.0625 21.8042 17.1996 21.7517 17.3259C21.6992 17.4522 21.6169 17.564 21.512 17.6517L21.3916 17.7367L15.4416 21.1722C15.3217 21.2416 15.1866 21.2807 15.0482 21.286C14.9097 21.2913 14.7721 21.2627 14.6472 21.2026C14.5223 21.1425 14.414 21.0529 14.3318 20.9414C14.2495 20.8299 14.1957 20.7 14.1751 20.563L14.1666 20.4355V13.5647Z" fill="black"/>
</g>
<defs>
<clipPath id="clip0_5_4181">
<rect width="34" height="34" fill="white"/>
</clipPath>
</defs>
</svg>
