<svg width="34" height="34" viewBox="0 0 34 34" fill="none" xmlns="http://www.w3.org/2000/svg">
<g id="ri:behance-fill">
<path id="Vector" d="M10.5442 7.5791C11.4495 7.5791 12.2867 7.64993 13.0517 7.8596C13.8182 7.99985 14.4457 8.28035 15.0025 8.63027C15.5607 8.98019 15.9786 9.47177 16.2562 10.1022C16.5353 10.7326 16.6756 11.5047 16.6756 12.3448C16.6756 13.3265 16.4659 14.1666 15.9786 14.797C15.5607 15.4289 14.8637 15.9884 14.0278 16.4092C15.2122 16.7605 16.1174 17.3909 16.6756 18.231C17.2323 19.0725 17.5808 20.1237 17.5808 21.3151C17.5808 22.2969 17.3712 23.1369 17.0227 23.8382C16.6756 24.5394 16.1174 25.1698 15.4898 25.5906C14.8081 26.0416 14.0545 26.3731 13.2614 26.5709C12.4256 26.782 11.5897 26.9223 10.7539 26.9223H1.41666V7.5791H10.5442ZM9.98607 15.4274C10.7525 15.4274 11.3801 15.2178 11.8674 14.8679C12.3547 14.5179 12.5644 13.8861 12.5644 13.1154C12.5644 12.6947 12.4936 12.2739 12.3547 11.9949C12.2159 11.7144 12.0062 11.5033 11.7286 11.2936C11.4445 11.1344 11.1392 11.0166 10.8219 10.9437C10.4734 10.8729 10.1263 10.8729 9.70699 10.8729H5.66666V15.4289L9.98607 15.4274ZM10.1957 23.6979C10.6137 23.6979 11.0316 23.6271 11.3801 23.5577C11.7286 23.4868 12.0771 23.348 12.3547 23.1369C12.6386 22.9318 12.8761 22.6693 13.0517 22.3663C13.1906 22.0164 13.3308 21.5956 13.3308 21.1054C13.3308 20.1237 13.0517 19.4224 12.495 18.9323C11.9368 18.5115 11.1704 18.3019 10.2652 18.3019H5.66666V23.6994L10.1957 23.6979ZM23.6427 23.6271C24.1995 24.1881 25.0353 24.4686 26.1502 24.4686C26.9167 24.4686 27.6137 24.2589 28.1704 23.909C28.7286 23.4883 29.0771 23.0675 29.2159 22.6468H32.6301C32.0719 24.3284 31.2361 25.5198 30.1226 26.2904C29.0062 26.9917 27.6831 27.4124 26.0808 27.4124C25.0557 27.4156 24.0391 27.2253 23.0846 26.8514C22.2256 26.5293 21.4596 25.9998 20.8547 25.3101C20.2077 24.6649 19.7295 23.8704 19.4622 22.9967C19.1137 22.0858 18.9734 21.1054 18.9734 19.9834C18.9734 18.9323 19.1137 17.9519 19.4622 17.0396C19.7976 16.1613 20.2939 15.3532 20.9256 14.6568C21.5517 14.0264 22.3182 13.4668 23.154 13.1154C24.0843 12.7415 25.0782 12.551 26.0808 12.5544C27.2652 12.5544 28.3107 12.7655 29.2159 13.2557C30.1226 13.7459 30.8182 14.3069 31.3749 15.1484C31.9331 15.919 32.3524 16.8299 32.6301 17.8117C32.7689 18.792 32.8383 19.7738 32.7689 20.8944H22.6667C22.6667 22.0164 23.0846 23.0675 23.6427 23.6285M28.0316 16.2704C27.5442 15.7802 26.7778 15.4997 25.8712 15.4997C25.3395 15.4917 24.8138 15.6117 24.3383 15.8496C23.9204 16.0607 23.6427 16.3412 23.3637 16.6217C23.1072 16.8926 22.9375 17.234 22.8763 17.602C22.8055 17.9534 22.7361 18.2324 22.7361 18.5129H29.0062C28.8674 17.4618 28.5189 16.7619 28.0316 16.2704ZM21.9002 8.91077H29.7032V10.8034H21.9017L21.9002 8.91077Z" fill="white"/>
</g>
</svg>
