<svg width="51" height="70" viewBox="0 0 51 70" fill="none" xmlns="http://www.w3.org/2000/svg">
<g id="Mode_Isolation" clip-path="url(#clip0_5_3781)">
<g id="Group">
<g id="Group_2">
<path id="Vector" d="M4.84228 34.7845C5.96597 33.2431 12.3099 23.3386 22.484 17.9257C22.8721 17.719 23.2019 17.4229 23.4606 17.0682L32.303 4.85923C32.303 4.85923 34.1167 3.21827 33.0285 13.2503L43.5527 10.1266C43.9534 10.0067 44.3897 10.0628 44.7423 10.2925C45.6174 10.8693 46.802 12.2831 44.3593 15.1287C44.0929 15.4375 43.7099 15.6238 43.3015 15.6391C40.4048 15.7437 28.3156 16.7186 25.604 21.5547C25.4417 21.8431 25.2641 22.2055 25.0688 22.5679C23.5874 25.3215 16.8884 36.2596 16.9112 42.0119C16.9163 43.219 17.591 44.3317 18.6488 44.9008C20.6881 45.9931 24.7923 46.8863 29.7716 41.0115C29.9212 40.8328 30.1394 40.7129 30.3702 40.7129C30.672 40.7129 31.0043 40.8762 30.8978 41.6469C30.875 41.8052 30.8039 41.9532 30.6949 42.0731C29.3885 43.5227 20.2722 53.1975 15.6759 46.1947C15.5085 45.942 15.3411 45.6868 15.1686 45.4367C14.3087 44.1862 11.4018 38.2221 19.9703 22.7363C19.9703 22.7363 9.22545 29.7493 6.13846 35.642C6.00656 35.8921 5.76051 36.0733 5.47896 36.0962C5.17457 36.1218 4.98686 35.9737 4.77126 35.6369C4.58862 35.3459 4.65458 35.0397 4.84228 34.7845Z" fill="white"/>
<path id="Vector_2" d="M22.1035 33.197C23.3185 31.6684 33.2492 19.735 39.7453 29.0219C40.1258 29.5655 40.3439 30.206 40.3845 30.8696C40.5747 33.7993 40.4023 42.6192 32.8459 51.5641C32.8459 51.5641 23.7802 61.5987 19.2448 63.7884C19.2448 63.7884 18.1567 63.2933 19.2448 62.0811C19.2448 62.0811 34.9664 48.9329 35.6335 33.6258C35.6792 32.5667 35.2835 31.5229 34.5073 30.8083C32.9625 29.3868 29.6041 28.4017 22.9558 34.1821C22.7301 34.3786 22.4028 34.445 22.1365 34.3097C21.9387 34.2102 21.7839 34.0162 21.8752 33.6436C21.9158 33.4803 21.9995 33.3297 22.1035 33.1996V33.197Z" fill="white"/>
</g>
<path id="Vector_3" d="M17.3655 70.0002C16.5893 70.0002 15.8943 69.9134 15.2906 69.745C13.9335 69.3596 12.9468 68.1883 12.8352 66.7259C12.7667 65.82 13.099 64.9268 13.69 64.2402C17.401 59.9171 19.207 56.8955 20.0035 55.3464C16.5437 55.9231 13.8321 55.2698 11.9347 53.3992C7.95234 49.4792 8.71077 41.3127 9.43876 37.0891C6.60797 39.6386 2.80059 41.9277 1.56275 42.6474C1.24822 42.8312 0.867738 42.8363 0.548132 42.6576C0.233599 42.4841 0.0382843 42.1651 0.023065 41.8078C-0.390394 31.3648 6.28836 25.0562 11.1662 20.4497C12.8225 18.8853 14.2531 17.5353 15.0243 16.3537C15.5671 15.5218 15.7243 14.8327 15.5037 14.2432C14.9811 12.8523 12.4065 12.1275 11.3716 11.8443C10.9886 11.7396 10.669 11.4538 10.5675 11.0684C10.4483 10.6142 10.6284 10.1727 11.0114 9.94554C13.5429 8.44238 14.5093 3.65475 14.7452 1.77134C14.796 1.37578 15.1029 1.06443 15.4961 1.01594H15.4986C15.8918 0.964898 16.2596 1.19458 16.4067 1.56463C17.609 4.55052 20.9268 4.57093 22.5731 4.58369C22.71 4.58369 22.8318 4.58369 22.9358 4.5888C23.2884 4.59646 23.608 4.81338 23.7449 5.13749C23.8819 5.4616 23.816 5.83675 23.5801 6.0945C22.4412 7.3399 21.5432 8.65931 20.9091 10.0144C20.6478 10.5708 20.3992 11.1935 20.1456 11.9183C19.9274 12.5435 19.9046 12.9238 20.0771 13.1535C20.138 13.2351 20.1988 13.2964 20.247 13.3372C22.8419 10.4049 25.5738 7.50578 28.2144 4.70109C29.4319 3.4072 30.652 2.11332 31.8594 0.814328C32.6432 -0.0278464 33.8836 -0.239666 34.8779 0.298815C37.3865 1.6565 37.0238 5.38504 36.6788 7.18678L48.2354 6.0256C49.0598 5.93883 49.836 6.45434 50.0642 7.25313L50.8506 9.99913C51.1347 10.9919 51.0129 12.0357 50.5031 12.9365L45.9804 19.873L45.5771 19.85C40.0854 19.5336 37.2648 20.5289 35.8824 21.3787C38.4341 21.5063 40.2021 22.8946 41.1102 23.821C41.582 24.3033 41.9574 24.875 42.2263 25.5207C47.7864 38.9087 39.5046 51.1406 38.2515 52.8709C38.2896 53.7794 38.5711 54.4455 39.1038 54.9023C39.705 55.4178 40.9783 55.9436 43.6315 55.5148C43.9714 55.4612 44.3164 55.6118 44.499 55.9053C44.6868 56.2039 44.6741 56.5892 44.4686 56.8827C42.9796 59.0188 41.9701 61.9179 42.9999 63.1378C43.2739 63.4619 43.2967 63.9799 42.9949 64.276C42.6702 64.595 42.1426 64.6154 41.8078 64.3219C40.3543 63.0433 37.1202 62.6018 35.7657 62.5865C35.507 62.584 35.2508 62.4768 35.0859 62.2752C34.8119 61.9409 34.8119 61.4891 35.0631 61.165C36.2552 59.6236 36.2375 58.8861 36.1233 58.5824C35.9407 58.1051 35.2229 57.9112 34.8094 57.8397C34.6699 57.8142 34.5253 57.878 34.4441 57.9929C30.6926 63.5589 22.4437 68.1347 20.0035 69.4056C19.3263 69.7578 18.5729 69.9619 17.8272 69.9926C17.6699 70.0002 17.5177 70.0028 17.368 70.0028L17.3655 70.0002ZM22.289 53.389L21.8755 54.6037C21.8222 54.7569 20.5311 58.4318 14.7072 65.2075C14.2658 65.7204 14.1187 66.412 14.3115 67.0577C14.5093 67.7161 15.004 68.201 15.6711 68.3899C16.2469 68.5532 16.9546 68.6221 17.7688 68.5864C18.3142 68.5634 18.8646 68.4154 19.3618 68.1576C21.7284 66.925 29.7236 62.4972 33.29 57.2043C33.6781 56.6275 34.3706 56.334 35.0529 56.454C36.2831 56.6709 37.1075 57.2323 37.4297 58.0771C37.762 58.9473 37.5337 59.986 36.727 61.2416C37.8254 61.3437 39.672 61.6142 41.2193 62.3186C41.0265 60.7414 41.6809 58.7891 42.7032 57.046C40.7221 57.2043 39.2103 56.8444 38.1982 55.9767C37.3054 55.2111 36.8513 54.0908 36.8513 52.6489V52.4064L37.001 52.215C37.0974 52.0925 46.5892 39.6768 40.9377 26.0693C40.7373 25.5896 40.4634 25.1685 40.1159 24.8137C39.2103 23.8873 37.2622 22.4021 34.4162 22.8742C34.0205 22.9405 33.6248 22.7134 33.4853 22.3102C33.394 22.0422 33.4625 21.7487 33.6274 21.5216C34.434 20.4217 37.1329 18.0457 45.2549 18.4311L49.3134 12.2092C49.6102 11.6784 49.6888 11.0174 49.5087 10.3921L48.7224 7.64615C48.6818 7.50578 48.5296 7.41391 48.3774 7.42922L34.8195 8.78946L35.1062 7.79161C35.5044 6.4033 36.1233 2.57524 34.2158 1.54166C33.7897 1.30942 33.2266 1.40895 32.8816 1.78155C31.6717 3.08309 30.4491 4.37953 29.229 5.67597C26.5605 8.50874 23.8007 11.441 21.1906 14.3937C20.9395 14.6796 20.6021 14.825 20.2521 14.8123C19.6383 14.7868 19.1817 14.2993 18.9635 14.0084C18.2609 13.0718 18.6718 11.8978 18.8291 11.4563C19.098 10.6856 19.3668 10.0221 19.6459 9.42237C20.1988 8.24077 20.9319 7.08725 21.8324 5.98477C20.1836 5.93117 17.4771 5.60706 15.8689 3.46845C15.4301 5.69383 14.4611 8.97066 12.3989 10.6856C13.8727 11.1271 16.1454 11.9923 16.8075 13.7557C17.193 14.7817 16.985 15.9199 16.1885 17.1372C15.3261 18.4566 13.8397 19.8602 12.1174 21.4859C7.53888 25.7963 1.30656 31.6838 1.40042 41.1085C3.23181 40.0163 7.31567 37.4361 9.71271 34.8535C10.0957 34.44 10.8237 34.486 11.1205 35.1189C11.1839 35.2541 11.189 35.4073 11.1585 35.5527C10.7299 37.4872 8.61438 48.1624 12.9088 52.3911C14.6844 54.1393 17.4213 54.5782 21.046 53.6927L22.2864 53.389H22.289ZM35.7631 61.1752C35.7631 61.1752 35.7682 61.1752 35.7733 61.1752C35.7708 61.1752 35.7657 61.1752 35.7631 61.1752Z" fill="white"/>
</g>
</g>
<defs>
<clipPath id="clip0_5_3781">
<rect width="51" height="70" fill="white"/>
</clipPath>
</defs>
</svg>
