<svg width="34" height="34" viewBox="0 0 34 34" fill="none" xmlns="http://www.w3.org/2000/svg">
<g id="lets-icons:insta">
<g id="Group">
<path id="Vector" d="M4.25 15.5833C4.25 10.2411 4.25 7.56925 5.91033 5.91033C7.56925 4.25 10.2411 4.25 15.5833 4.25H18.4167C23.7589 4.25 26.4307 4.25 28.0897 5.91033C29.75 7.56925 29.75 10.2411 29.75 15.5833V18.4167C29.75 23.7589 29.75 26.4307 28.0897 28.0897C26.4307 29.75 23.7589 29.75 18.4167 29.75H15.5833C10.2411 29.75 7.56925 29.75 5.91033 28.0897C4.25 26.4307 4.25 23.7589 4.25 18.4167V15.5833Z" stroke="white" stroke-width="2"/>
<path id="Vector_2" d="M23.375 12.75C24.5486 12.75 25.5 11.7986 25.5 10.625C25.5 9.45139 24.5486 8.5 23.375 8.5C22.2014 8.5 21.25 9.45139 21.25 10.625C21.25 11.7986 22.2014 12.75 23.375 12.75Z" fill="white"/>
<path id="Vector_3" d="M17 21.25C19.3472 21.25 21.25 19.3472 21.25 17C21.25 14.6528 19.3472 12.75 17 12.75C14.6528 12.75 12.75 14.6528 12.75 17C12.75 19.3472 14.6528 21.25 17 21.25Z" stroke="white" stroke-width="2"/>
</g>
</g>
</svg>
