<svg width="72" height="71" viewBox="0 0 72 71" fill="none" xmlns="http://www.w3.org/2000/svg">
<path d="M48.0651 70.999C32.0276 55.112 16.0242 39.2588 0 23.3854V0.0513935C0.0832058 0.0347335 0.161101 0.0114973 0.240766 0.00535944C0.339019 -0.00253211 0.438601 0.00316734 0.537739 0.00316734C8.01165 0.00316734 15.4851 0.00229051 22.959 0.0044826C23.5463 0.0044826 23.3706 -0.0634724 23.7681 0.32979C39.7237 16.1331 55.6779 31.9376 71.6322 47.7422C71.6623 47.772 71.6889 47.8062 71.7229 47.8308C71.9495 47.9965 72.0004 48.2179 72 48.491C71.9929 53.0339 71.9947 57.5773 71.9947 62.1202C71.9947 64.8967 71.9947 67.6728 71.9938 70.4493C71.9938 70.6145 72.015 70.7829 71.9562 70.9701C71.8708 70.9797 71.7906 70.9942 71.7097 70.9973C71.5968 71.0021 71.483 70.999 71.3702 70.999C63.7706 70.999 56.1705 70.999 48.5709 70.999C48.4014 70.999 48.2319 70.999 48.0651 70.999Z" fill="white"/>
<path d="M71.9682 34C71.9069 33.9762 71.8645 33.9713 71.8387 33.9475C71.7455 33.8624 71.6571 33.7719 71.5679 33.6824C64.8525 26.91 58.1366 20.1385 51.4243 13.363C51.1089 13.0445 50.8026 12.711 50.5323 12.3532C49.4596 10.9339 48.9601 9.32675 49.0025 7.53913C49.076 4.44125 51.1185 1.27895 54.4747 0.307495C55.1492 0.112057 55.836 0 56.5399 0C61.5471 0.000882338 66.5542 0 71.5613 0C71.686 0 71.8103 0 71.945 0C71.9651 0.0917631 71.9892 0.157938 71.9927 0.225437C71.9997 0.36617 71.9966 0.507344 71.9966 0.648518C71.9966 11.5802 71.9966 22.512 71.9957 33.4437C71.9957 33.6228 72.0159 33.805 71.9686 33.9996L71.9682 34Z" fill="white"/>
<path d="M0.040993 70.9826C-0.0115045 70.5778 -0.012817 37.3903 0.0326809 37.0126C0.117114 36.9708 0.158238 37.0428 0.205923 37.0869C0.278107 37.1536 0.345479 37.2266 0.415038 37.2969C7.14216 44.1373 13.8688 50.9791 20.5982 57.8173C21.2063 58.4352 21.7439 59.1043 22.1394 59.8819C22.8595 61.2978 23.1447 62.7979 22.9304 64.3837C22.5988 66.8353 21.4263 68.7544 19.3798 70.1041C19.0534 70.3194 18.6942 70.4853 18.3412 70.6552C17.8298 70.9012 17.2956 71.0013 16.7203 71C11.3341 70.9862 5.9474 70.992 0.561156 70.9915C0.395351 70.9915 0.229547 70.9862 0.0414305 70.9826H0.040993Z" fill="white"/>
</svg>
