<svg width="34" height="34" viewBox="0 0 34 34" fill="none" xmlns="http://www.w3.org/2000/svg">
<g id="mingcute:youtube-line" clip-path="url(#clip0_5_3801)">
<g id="Group">
<path id="Vector" d="M17 5.66675C18.2113 5.66675 19.4537 5.69791 20.6578 5.74891L22.0802 5.81691L23.4416 5.89766L24.7166 5.98408L25.8811 6.07475C27.1448 6.17147 28.334 6.71076 29.2393 7.59772C30.1447 8.48469 30.7083 9.66251 30.8309 10.924L30.8876 11.5261L30.9938 12.8152C31.093 14.1512 31.1667 15.6075 31.1667 17.0001C31.1667 18.3927 31.093 19.849 30.9938 21.1849L30.8876 22.4741C30.8692 22.6809 30.8508 22.8807 30.8309 23.0762C30.7082 24.3379 30.1445 25.5159 29.2388 26.4029C28.3332 27.2899 27.1437 27.829 25.8797 27.9254L24.718 28.0147L23.443 28.1025L22.0802 28.1832L20.6578 28.2512C19.4393 28.3042 18.2197 28.3316 17 28.3334C15.7803 28.3316 14.5607 28.3042 13.3422 28.2512L11.9198 28.1832L10.5584 28.1025L9.28343 28.0147L8.11893 27.9254C6.85519 27.8287 5.66604 27.2894 4.76068 26.4024C3.85532 25.5155 3.29174 24.3376 3.16909 23.0762L3.11243 22.4741L3.00618 21.1849C2.89786 19.7925 2.84021 18.3967 2.83334 17.0001C2.83334 15.6075 2.90701 14.1512 3.00618 12.8152L3.11243 11.5261C3.13084 11.3192 3.14926 11.1195 3.16909 10.924C3.29169 9.66274 3.85507 8.48509 4.76014 7.59815C5.66521 6.71122 6.85403 6.17179 8.11751 6.07475L9.28059 5.98408L10.5556 5.89766L11.9184 5.81691L13.3408 5.74891C14.5598 5.69598 15.7798 5.66858 17 5.66675ZM17 8.50008C15.8313 8.50008 14.6285 8.53125 13.4583 8.57941L12.0728 8.646L10.7426 8.72391L9.49309 8.80891L8.34843 8.89816C7.74681 8.94085 7.17974 9.19516 6.74773 9.61603C6.31571 10.0369 6.04666 10.5971 5.98826 11.1974C5.82251 12.9102 5.66668 15.0422 5.66668 17.0001C5.66668 18.9579 5.82251 21.09 5.98826 22.8027C6.10868 24.0381 7.08901 24.9986 8.34843 25.102L9.49309 25.1898L10.7426 25.2748L12.0728 25.3542L13.4583 25.4207C14.6285 25.4689 15.8313 25.5001 17 25.5001C18.1688 25.5001 19.3715 25.4689 20.5417 25.4207L21.9272 25.3542L23.2574 25.2762L24.5069 25.1912L25.6516 25.102C26.2532 25.0593 26.8203 24.805 27.2523 24.3841C27.6843 23.9633 27.9534 23.403 28.0118 22.8027C28.1775 21.09 28.3333 18.9579 28.3333 17.0001C28.3333 15.0422 28.1775 12.9102 28.0118 11.1974C27.9534 10.5971 27.6843 10.0369 27.2523 9.61603C26.8203 9.19516 26.2532 8.94085 25.6516 8.89816L24.5069 8.81033L23.2574 8.72533L21.9272 8.646L20.5417 8.57941C19.3618 8.52865 18.181 8.5022 17 8.50008ZM14.1667 13.5647C14.1666 13.4262 14.2003 13.2898 14.2649 13.1674C14.3296 13.0449 14.4231 12.9401 14.5375 12.862C14.6519 12.784 14.7836 12.7351 14.9211 12.7195C15.0587 12.7039 15.198 12.7222 15.3269 12.7727L15.4417 12.8294L21.3917 16.2634C21.5102 16.3318 21.6104 16.4277 21.6839 16.5431C21.7573 16.6585 21.8019 16.7899 21.8137 16.9262C21.8255 17.0625 21.8043 17.1996 21.7518 17.3259C21.6993 17.4522 21.617 17.564 21.5121 17.6517L21.3917 17.7367L15.4417 21.1722C15.3218 21.2416 15.1867 21.2807 15.0483 21.286C14.9098 21.2913 14.7722 21.2627 14.6473 21.2026C14.5224 21.1425 14.4141 21.0529 14.3319 20.9414C14.2496 20.8299 14.1958 20.7 14.1752 20.563L14.1667 20.4355V13.5647Z" fill="white"/>
</g>
</g>
<defs>
<clipPath id="clip0_5_3801">
<rect width="34" height="34" fill="white"/>
</clipPath>
</defs>
</svg>
